<svg xmlns="http://www.w3.org/2000/svg" width="24" height="24" fill="none"><path fill="#FF868E" d="M7.84 12.458a4.617 4.617 0 0 1 4.618-4.617h6.925a4.617 4.617 0 1 1 0 9.234h-6.925a4.617 4.617 0 0 1-4.617-4.617Z"/><path fill="#FF868E" d="M12.458 24a4.617 4.617 0 0 1-4.617-4.617v-6.925a4.617 4.617 0 1 1 9.234 0v6.925A4.617 4.617 0 0 1 12.458 24ZM11.543 2.886a2.886 2.886 0 1 1-5.771 0 2.886 2.886 0 0 1 5.77 0ZM5.771 16.737a2.886 2.886 0 1 1-5.771 0 2.886 2.886 0 0 1 5.771 0ZM19.622 2.886a2.886 2.886 0 1 1-5.771 0 2.886 2.886 0 0 1 5.77 0ZM5.771 8.657a2.886 2.886 0 1 1-5.771 0 2.886 2.886 0 0 1 5.771 0Z"/></svg>